<mxfile host="Electron" modified="2024-05-24T10:09:46.924Z" agent="Mozilla/5.0 (Macintosh; Intel Mac OS X 10_15_7) AppleWebKit/537.36 (KHTML, like Gecko) draw.io/24.4.7 Chrome/124.0.6367.207 Electron/30.0.6 Safari/537.36" etag="9nUq1I-ic60YZ653P_Js" version="24.4.7" type="device">
  <diagram name="Page-1" id="WgIIt3RIxKvnvaixoGWl">
    <mxGraphModel dx="1562" dy="1054" grid="1" gridSize="10" guides="1" tooltips="1" connect="1" arrows="1" fold="1" page="1" pageScale="1" pageWidth="850" pageHeight="1100" math="0" shadow="0">
      <root>
        <mxCell id="0" />
        <mxCell id="1" parent="0" />
        <mxCell id="SOo3PTIuLIpw1dkgGQ1G-1" value="RecognizedGesture" style="swimlane;fontStyle=0;childLayout=stackLayout;horizontal=1;startSize=30;horizontalStack=0;resizeParent=1;resizeParentMax=0;resizeLast=0;collapsible=1;marginBottom=0;whiteSpace=wrap;html=1;" parent="1" vertex="1">
          <mxGeometry x="490" y="320" width="140" height="60" as="geometry" />
        </mxCell>
        <mxCell id="SOo3PTIuLIpw1dkgGQ1G-4" value="type" style="text;strokeColor=none;fillColor=none;align=left;verticalAlign=middle;spacingLeft=4;spacingRight=4;overflow=hidden;points=[[0,0.5],[1,0.5]];portConstraint=eastwest;rotatable=0;whiteSpace=wrap;html=1;" parent="SOo3PTIuLIpw1dkgGQ1G-1" vertex="1">
          <mxGeometry y="30" width="140" height="30" as="geometry" />
        </mxCell>
        <mxCell id="SOo3PTIuLIpw1dkgGQ1G-5" value="FrameData" style="swimlane;fontStyle=0;childLayout=stackLayout;horizontal=1;startSize=30;horizontalStack=0;resizeParent=1;resizeParentMax=0;resizeLast=0;collapsible=1;marginBottom=0;whiteSpace=wrap;html=1;" parent="1" vertex="1">
          <mxGeometry x="180" y="170" width="140" height="180" as="geometry">
            <mxRectangle x="180" y="170" width="100" height="30" as="alternateBounds" />
          </mxGeometry>
        </mxCell>
        <mxCell id="SOo3PTIuLIpw1dkgGQ1G-6" value="time" style="text;strokeColor=none;fillColor=none;align=left;verticalAlign=middle;spacingLeft=4;spacingRight=4;overflow=hidden;points=[[0,0.5],[1,0.5]];portConstraint=eastwest;rotatable=0;whiteSpace=wrap;html=1;" parent="SOo3PTIuLIpw1dkgGQ1G-5" vertex="1">
          <mxGeometry y="30" width="140" height="30" as="geometry" />
        </mxCell>
        <mxCell id="SOo3PTIuLIpw1dkgGQ1G-7" value="result" style="text;strokeColor=none;fillColor=none;align=left;verticalAlign=middle;spacingLeft=4;spacingRight=4;overflow=hidden;points=[[0,0.5],[1,0.5]];portConstraint=eastwest;rotatable=0;whiteSpace=wrap;html=1;" parent="SOo3PTIuLIpw1dkgGQ1G-5" vertex="1">
          <mxGeometry y="60" width="140" height="30" as="geometry" />
        </mxCell>
        <mxCell id="SOo3PTIuLIpw1dkgGQ1G-8" value="movement_state" style="text;strokeColor=none;fillColor=none;align=left;verticalAlign=middle;spacingLeft=4;spacingRight=4;overflow=hidden;points=[[0,0.5],[1,0.5]];portConstraint=eastwest;rotatable=0;whiteSpace=wrap;html=1;" parent="SOo3PTIuLIpw1dkgGQ1G-5" vertex="1">
          <mxGeometry y="90" width="140" height="30" as="geometry" />
        </mxCell>
        <mxCell id="SOo3PTIuLIpw1dkgGQ1G-10" value="movement_type" style="text;strokeColor=none;fillColor=none;align=left;verticalAlign=middle;spacingLeft=4;spacingRight=4;overflow=hidden;points=[[0,0.5],[1,0.5]];portConstraint=eastwest;rotatable=0;whiteSpace=wrap;html=1;" parent="SOo3PTIuLIpw1dkgGQ1G-5" vertex="1">
          <mxGeometry y="120" width="140" height="30" as="geometry" />
        </mxCell>
        <mxCell id="SOo3PTIuLIpw1dkgGQ1G-12" value="gesture" style="text;strokeColor=none;fillColor=none;align=left;verticalAlign=middle;spacingLeft=4;spacingRight=4;overflow=hidden;points=[[0,0.5],[1,0.5]];portConstraint=eastwest;rotatable=0;whiteSpace=wrap;html=1;" parent="SOo3PTIuLIpw1dkgGQ1G-5" vertex="1">
          <mxGeometry y="150" width="140" height="30" as="geometry" />
        </mxCell>
        <mxCell id="SOo3PTIuLIpw1dkgGQ1G-21" value="hand_data_buffer" style="rounded=0;whiteSpace=wrap;html=1;" parent="1" vertex="1">
          <mxGeometry x="180" y="70" width="120" height="50" as="geometry" />
        </mxCell>
        <mxCell id="SOo3PTIuLIpw1dkgGQ1G-22" style="edgeStyle=orthogonalEdgeStyle;rounded=0;orthogonalLoop=1;jettySize=auto;html=1;entryX=0.424;entryY=-0.008;entryDx=0;entryDy=0;entryPerimeter=0;" parent="1" source="SOo3PTIuLIpw1dkgGQ1G-21" target="SOo3PTIuLIpw1dkgGQ1G-5" edge="1">
          <mxGeometry relative="1" as="geometry" />
        </mxCell>
        <mxCell id="SOo3PTIuLIpw1dkgGQ1G-33" value="0..fps/2" style="edgeLabel;html=1;align=center;verticalAlign=middle;resizable=0;points=[];" parent="SOo3PTIuLIpw1dkgGQ1G-22" vertex="1" connectable="0">
          <mxGeometry x="0.6922" y="1" relative="1" as="geometry">
            <mxPoint x="20" y="-11" as="offset" />
          </mxGeometry>
        </mxCell>
        <mxCell id="SOo3PTIuLIpw1dkgGQ1G-23" style="edgeStyle=orthogonalEdgeStyle;rounded=0;orthogonalLoop=1;jettySize=auto;html=1;entryX=0;entryY=0.25;entryDx=0;entryDy=0;" parent="1" source="SOo3PTIuLIpw1dkgGQ1G-12" target="SOo3PTIuLIpw1dkgGQ1G-1" edge="1">
          <mxGeometry relative="1" as="geometry" />
        </mxCell>
        <mxCell id="SOo3PTIuLIpw1dkgGQ1G-32" value="0..1" style="edgeLabel;html=1;align=center;verticalAlign=middle;resizable=0;points=[];" parent="SOo3PTIuLIpw1dkgGQ1G-23" vertex="1" connectable="0">
          <mxGeometry x="0.8608" y="1" relative="1" as="geometry">
            <mxPoint y="-14" as="offset" />
          </mxGeometry>
        </mxCell>
        <mxCell id="SOo3PTIuLIpw1dkgGQ1G-25" value="Mediapipe Result" style="swimlane;fontStyle=0;childLayout=stackLayout;horizontal=1;startSize=30;horizontalStack=0;resizeParent=1;resizeParentMax=0;resizeLast=0;collapsible=1;marginBottom=0;whiteSpace=wrap;html=1;" parent="1" vertex="1">
          <mxGeometry x="490" y="230" width="140" height="60" as="geometry" />
        </mxCell>
        <mxCell id="SOo3PTIuLIpw1dkgGQ1G-28" value="..." style="text;strokeColor=none;fillColor=none;align=left;verticalAlign=middle;spacingLeft=4;spacingRight=4;overflow=hidden;points=[[0,0.5],[1,0.5]];portConstraint=eastwest;rotatable=0;whiteSpace=wrap;html=1;" parent="SOo3PTIuLIpw1dkgGQ1G-25" vertex="1">
          <mxGeometry y="30" width="140" height="30" as="geometry" />
        </mxCell>
        <mxCell id="SOo3PTIuLIpw1dkgGQ1G-30" style="edgeStyle=orthogonalEdgeStyle;rounded=0;orthogonalLoop=1;jettySize=auto;html=1;exitX=1;exitY=0.5;exitDx=0;exitDy=0;entryX=0;entryY=0.25;entryDx=0;entryDy=0;" parent="1" source="SOo3PTIuLIpw1dkgGQ1G-7" target="SOo3PTIuLIpw1dkgGQ1G-25" edge="1">
          <mxGeometry relative="1" as="geometry" />
        </mxCell>
        <mxCell id="SOo3PTIuLIpw1dkgGQ1G-31" value="1" style="edgeLabel;html=1;align=center;verticalAlign=middle;resizable=0;points=[];" parent="SOo3PTIuLIpw1dkgGQ1G-30" vertex="1" connectable="0">
          <mxGeometry x="0.8167" y="1" relative="1" as="geometry">
            <mxPoint y="-14" as="offset" />
          </mxGeometry>
        </mxCell>
      </root>
    </mxGraphModel>
  </diagram>
</mxfile>
